<?xml version="1.0" encoding="utf-8"?>
<!-- Svg Vector Icons : http://www.onlinewebfonts.com/icon -->
<!DOCTYPE svg PUBLIC "-//W3C//DTD SVG 1.1//EN" "http://www.w3.org/Graphics/SVG/1.1/DTD/svg11.dtd">
<svg version="1.1" xmlns="http://www.w3.org/2000/svg" xmlns:xlink="http://www.w3.org/1999/xlink" x="0px" y="0px" viewBox="0 0 1000 1000" enable-background="new 0 0 1000 1000" xml:space="preserve">
<metadata> Svg Vector Icons : http://www.onlinewebfonts.com/icon </metadata>
<g><g><path d="M743.8,212.8c38.3,0,69-30.7,69-68.8V71.8c0-38.2-30.7-69-69-69c-38,0-68.9,30.8-68.9,69v72.1C674.9,182.1,705.8,212.8,743.8,212.8z"/><path d="M988.9,122.3H850v34.9c0,58-47,105.1-105,105.1c-58,0-105-47.1-105-105.1v-34.9H360v34.9c0,58-47,105.1-105,105.1c-58,0-105-47.1-105-105.1v-34.9L10,120.5v876.6l70,0h840l70-0.2L988.9,122.3z M920,927.4H80V367.3h840V927.4z"/><path d="M253.8,212.8c38.2,0,69-30.7,69-68.8V71.8c0-38.2-30.8-69-69-69c-38,0-68.9,30.8-68.9,69v72.1C184.9,182.1,215.8,212.8,253.8,212.8z"/><path d="M269,745.5c14.4,7.9,47.2,21.1,80.1,21.1c41.8,0,62.9-20.1,62.9-45.5c0-34.3-34-49.7-69.3-49.7h-32.8v-57.8h31.6c27.1,0,61-10.6,61-39.7c0-20.7-16.5-36-50.8-36c-28,0-57.6,12.2-71.5,20.7l-16.5-58.2c20.8-13.3,61.5-26,106.6-26c73.1,0,113.6,38.6,113.6,85.7c0,36.6-20.5,65.7-62.9,80v1.1c41.3,7.4,74.8,38.7,74.8,84.1c0,60.4-53.5,104.8-140.9,104.8c-44.6,0-82-11.6-102.1-23.9L269,745.5z"/><polygon points="651.6,551.7 650.6,551.7 584.9,582.9 571.7,522.5 663.2,480.2 729.4,480.2 729.4,824.4 651.6,824.4 "/></g><g></g><g></g><g></g><g></g><g></g><g></g><g></g><g></g><g></g><g></g><g></g><g></g><g></g><g></g><g></g></g>
</svg>